<?xml version="1.0" encoding="UTF-8" standalone="no"?>
<!-- Created with Inkscape (http://www.inkscape.org/) -->

<svg
   xmlns:dc="http://purl.org/dc/elements/1.1/"
   xmlns:cc="http://creativecommons.org/ns#"
   xmlns:rdf="http://www.w3.org/1999/02/22-rdf-syntax-ns#"
   xmlns:svg="http://www.w3.org/2000/svg"
   xmlns="http://www.w3.org/2000/svg"
   xmlns:sodipodi="http://sodipodi.sourceforge.net/DTD/sodipodi-0.dtd"
   xmlns:inkscape="http://www.inkscape.org/namespaces/inkscape"
   version="1.1"
   width="50"
   height="50"
   id="svg3030"
   inkscape:version="0.48.2 r9819"
   sodipodi:docname="adminmode.svg">
  <sodipodi:namedview
     pagecolor="#ffffff"
     bordercolor="#666666"
     borderopacity="1"
     objecttolerance="10"
     gridtolerance="10"
     guidetolerance="10"
     inkscape:pageopacity="0"
     inkscape:pageshadow="2"
     inkscape:window-width="640"
     inkscape:window-height="480"
     id="namedview17"
     showgrid="false"
     inkscape:zoom="6.6552"
     inkscape:cx="24.895874"
     inkscape:cy="23.100232"
     inkscape:window-x="655"
     inkscape:window-y="316"
     inkscape:window-maximized="0"
     inkscape:current-layer="svg3030" />
  <defs
     id="defs3032">
    <filter
       color-interpolation-filters="sRGB"
       id="filter3755">
      <feGaussianBlur
         id="feGaussianBlur3757"
         stdDeviation="0.64" />
    </filter>
  </defs>
  <metadata
     id="metadata3035">
    <rdf:RDF>
      <cc:Work
         rdf:about="">
        <dc:format>image/svg+xml</dc:format>
        <dc:type
           rdf:resource="http://purl.org/dc/dcmitype/StillImage" />
        <dc:title></dc:title>
      </cc:Work>
    </rdf:RDF>
  </metadata>
  <rect
     width="64"
     height="64"
     rx="4"
     ry="4"
     x="130.85715"
     y="289.93359"
     transform="matrix(0.74546756,0,0,0.74546756,-96.40472,-214.99105)"
     id="rect2985"
     style="fill:#000000;fill-opacity:1;stroke:none;filter:url(#filter3755)" />
  <rect
     width="47.709923"
     height="47.709923"
     rx="2.9818702"
     ry="2.9818702"
     x="1.145032"
     y="0.39957041"
     id="rect3049"
     style="fill:#e6e6e6;fill-opacity:1;stroke:none" />
  <path
     style="fill:#4d4d4d;fill-opacity:1"
     inkscape:connector-curvature="0"
     class="path1"
     d="m 4.1177856,27.2178 v -6.036174 q 0,-0.325868 0.217753,-0.625849 0.217753,-0.299982 0.5162116,-0.353278 L 9.908797,19.441125 Q 10.289484,18.190949 10.96863,16.93925 9.8813875,15.389092 8.0586579,13.187198 7.786086,12.86133 7.786086,12.533939 q 0,-0.272572 0.2451625,-0.625849 0.7065551,-0.979127 2.6785145,-2.9236769 1.971958,-1.9445495 2.570398,-1.9445495 0.353278,0 0.706556,0.272572 l 3.752051,2.9099714 Q 18.935648,9.5965579 20.213234,9.1884613 20.64874,5.489706 21.002018,4.1314146 21.192361,3.3700405 21.981145,3.3700405 h 6.036174 q 0.380687,0 0.666963,0.2314577 0.286277,0.2314577 0.312164,0.5847353 l 0.761374,5.0037506 q 1.332404,0.435506 2.447056,1.0065369 l 3.86169,-2.9099722 q 0.245162,-0.2451624 0.653259,-0.2451624 0.353277,0 0.679145,0.2725719 3.508412,3.2358397 4.486016,4.6230637 0.190344,0.217753 0.190344,0.59844 0,0.325868 -0.217753,0.625849 -0.408097,0.571031 -1.387224,1.809025 -0.979127,1.237995 -1.467929,1.91714 0.706555,1.359814 1.114652,2.66481 l 4.976341,0.761374 q 0.353277,0.05482 0.57103,0.339573 0.217753,0.284753 0.217753,0.639554 v 6.036174 q 0,0.325868 -0.217753,0.625849 -0.217753,0.299982 -0.543621,0.353278 l -5.03116,0.761374 q -0.516211,1.467929 -1.059832,2.474466 0.951717,1.359814 2.909971,3.752051 0.272572,0.325868 0.272572,0.679146 0,0.353277 -0.245162,0.625849 -0.733965,1.006537 -2.692219,2.937382 -1.958254,1.930844 -2.556694,1.930844 -0.325868,0 -0.706555,-0.245162 l -3.752052,-2.937381 q -1.19688,0.625849 -2.474466,1.033946 -0.435506,3.698755 -0.788783,5.057046 -0.190344,0.761375 -0.979127,0.761375 h -6.036174 q -0.380687,0 -0.666964,-0.231458 -0.286277,-0.231458 -0.312163,-0.584736 l -0.761374,-5.00375 q -1.332405,-0.435506 -2.447057,-1.006537 l -3.83428,2.909972 q -0.272572,0.245163 -0.679146,0.245163 -0.380687,0 -0.679145,-0.298459 -3.4261836,-3.100315 -4.4860164,-4.568245 -0.1903435,-0.272572 -0.1903435,-0.625849 0,-0.325868 0.217753,-0.62585 0.4080965,-0.57103 1.3872236,-1.809024 0.9791273,-1.237995 1.4679293,-1.91714 -0.733965,-1.359815 -1.1146517,-2.692219 L 4.9065692,28.196927 Q 4.5532916,28.142108 4.3355386,27.857354 4.1177856,27.5726 4.1177856,27.2178 z M 18.040272,24.254532 q 0,2.882562 2.03896,4.921522 2.03896,2.03896 4.921522,2.03896 2.882563,0 4.921523,-2.03896 2.038959,-2.03896 2.038959,-4.921522 0,-2.882562 -2.038959,-4.921522 -2.03896,-2.03896 -4.921523,-2.03896 -2.882562,0 -4.921522,2.03896 -2.03896,2.03896 -2.03896,4.921522 z"
     id="path3014" />
  <path
     style="fill:#00aad4;fill-opacity:1;stroke:none"
     inkscape:connector-curvature="0"
     class="path1"
     d="m 5.8231144,39.632057 c 0,-0.564336 0.2025285,-1.049033 0.6075855,-1.45409 L 17.312667,27.296 c 0.415199,1.043963 1.025171,1.968018 1.829917,2.772168 0.804746,0.804149 1.728802,1.414121 2.772169,1.829917 L 11.016679,42.796159 c -0.394319,0.394319 -0.873648,0.591479 -1.4379837,0.591479 -0.5541953,0 -1.0388921,-0.19716 -1.4540905,-0.591479 L 6.4306999,41.070041 C 6.0256429,40.686459 5.8231144,40.207131 5.8231144,39.632057 z M 17.759186,24.292072 c 0,-1.971001 0.700349,-3.656851 2.101047,-5.057551 1.400701,-1.400699 3.086552,-2.101049 5.057553,-2.101049 0.618025,0 1.265282,0.08799 1.94177,0.263973 0.676488,0.175982 1.249176,0.423551 1.718064,0.742705 0.170614,0.116924 0.255921,0.266061 0.255921,0.447412 0,0.181352 -0.08531,0.330489 -0.255921,0.447412 l -4.681725,2.700584 0,3.579299 3.083567,1.710012 c 0.05309,-0.03221 0.47396,-0.29052 1.262598,-0.774921 0.78864,-0.484397 1.510466,-0.915702 2.165477,-1.293915 0.655012,-0.378213 1.030541,-0.567319 1.126585,-0.567319 0.159875,0 0.28515,0.05339 0.375826,0.160174 0.09068,0.106781 0.136013,0.239812 0.136013,0.399092 0,0.415198 -0.122591,0.979833 -0.367772,1.693902 -0.500506,1.427545 -1.376837,2.586045 -2.628997,3.475501 -1.252157,0.889456 -2.628995,1.334183 -4.130511,1.334183 -1.971002,0 -3.656853,-0.700349 -5.057552,-2.101047 -1.400699,-1.4007 -2.101049,-3.086551 -2.101049,-5.057552 z"
     id="path3019"
     sodipodi:nodetypes="sscscssccscssscsccccssssscssscc" />
</svg>
