<?xml version="1.0" encoding="UTF-8" standalone="no"?>
<svg
   xmlns:dc="http://purl.org/dc/elements/1.1/"
   xmlns:cc="http://creativecommons.org/ns#"
   xmlns:rdf="http://www.w3.org/1999/02/22-rdf-syntax-ns#"
   xmlns:svg="http://www.w3.org/2000/svg"
   xmlns="http://www.w3.org/2000/svg"
   id="svg3030"
   height="50"
   width="50"
   version="1.1">
  <defs
     id="defs3032">
    <filter
       id="filter3755"
       color-interpolation-filters="sRGB">
      <feGaussianBlur
         stdDeviation="0.64"
         id="feGaussianBlur3757" />
    </filter>
  </defs>
  <metadata
     id="metadata3035">
    <rdf:RDF>
      <cc:Work
         rdf:about="">
        <dc:format>image/svg+xml</dc:format>
        <dc:type
           rdf:resource="http://purl.org/dc/dcmitype/StillImage" />
        <dc:title></dc:title>
      </cc:Work>
    </rdf:RDF>
  </metadata>
  <rect
     style="fill:#000000;fill-opacity:1;stroke:none;filter:url(#filter3755)"
     id="rect2985"
     transform="matrix(0.74546756,0,0,0.74546756,-96.40472,-214.99105)"
     y="289.93359"
     x="130.85715"
     ry="4"
     rx="4"
     height="64"
     width="64" />
  <rect
     style="fill:#e6e6e6;fill-opacity:1;stroke:none"
     id="rect3049"
     y="0.39957041"
     x="1.145032"
     ry="2.9818702"
     rx="2.9818702"
     height="47.709923"
     width="47.709923" />
  <g
     transform="matrix(1.1237601,0,0,1.1237601,-3.0940033,-3.0940034)"
     id="g4336">
    <path
       id="path3365"
       style="fill:#4552ff;fill-opacity:1;fill-rule:evenodd"
       d="M 28.326108,26.268896 23.764877,21.707665 37.448593,8.0239497 c 3.017172,-3.0171724 7.578403,1.5440587 4.561231,4.5612313 L 28.326108,26.268896 Z" />
    <path
       id="path3367"
       style="fill:#0012ff;fill-opacity:1;fill-rule:evenodd"
       d="M 26.045493,23.988281 23.764877,21.707665 37.448593,8.0239497 c 1.50859,-1.50859 3.4032,-1.1225846 4.543508,0.017723 L 26.045493,23.988281 Z" />
    <path
       id="path3369"
       style="fill:#333333;fill-rule:evenodd"
       d="M 25.29871,40.292677 C 21.365342,44.226046 13.884371,43.124002 8.6467363,41.387037 6.7309074,36.238846 5.8077426,28.668402 9.7410889,24.735056 l 8.5255891,-8.52559 15.557622,15.557622 -8.52559,8.525589 z" />
    <path
       id="path3371"
       style="fill:#000000;fill-rule:evenodd"
       d="M 8.6467363,41.387037 C 6.7309074,36.238846 5.8077426,28.668402 9.7410889,24.735056 l 8.5255891,-8.52559 7.778815,7.778815 -17.3987567,17.398756 z" />
  </g>
  <path
     id="path4227"
     d="m 45.811125,37.191148 q 0,0.06567 -0.01347,0.09177 -0.841957,3.526116 -3.526116,5.716045 -2.684158,2.189929 -6.288575,2.190772 -1.920505,0 -3.716398,-0.723241 -1.795892,-0.723241 -3.203644,-2.065321 l -1.697385,1.697386 q -0.250062,0.250061 -0.591896,0.250061 -0.341834,-10e-7 -0.591895,-0.250061 -0.250061,-0.250062 -0.250062,-0.591896 l 1e-6,-5.893698 q 0,-0.341835 0.25006,-0.591895 0.250062,-0.250062 0.591897,-0.250062 l 5.893698,0 q 0.341834,0 0.591895,0.250062 0.250061,0.25006 0.250062,0.591895 0,0.341834 -0.250062,0.591896 l -1.80263,1.80263 q 0.93373,0.868057 2.118364,1.342078 1.184633,0.474023 2.460197,0.47318 1.763058,0 3.288684,-0.855428 1.525626,-0.855428 2.446727,-2.354953 0.144817,-0.223961 0.697141,-1.539097 0.105244,-0.302263 0.394877,-0.302263 l 2.525871,0 q 0.170917,0 0.296369,0.12461 0.125469,0.12459 0.124609,0.296368 z m 0.329205,-10.52446 0,5.893698 q 0,0.341834 -0.250062,0.591895 -0.25006,0.250061 -0.591895,0.250062 l -5.893698,0 q -0.341834,0 -0.591895,-0.250061 -0.250062,-0.250061 -0.250062,-0.591896 0,-0.341835 0.250062,-0.591896 l 1.815259,-1.815259 q -1.946604,-1.80263 -4.591191,-1.80263 -1.763058,0 -3.288684,0.855428 -1.525625,0.855429 -2.446727,2.354954 -0.144816,0.22396 -0.697139,1.539097 -0.105245,0.302263 -0.394878,0.302263 l -2.617644,-1e-6 q -0.170918,0 -0.296369,-0.124609 -0.12547,-0.124591 -0.124609,-0.296369 l 0,-0.09177 q 0.855427,-3.526116 3.552215,-5.716045 2.696788,-2.18993 6.314677,-2.190772 1.920504,0 3.736604,0.729976 1.816102,0.729977 3.223011,2.058585 L 44.70732,26.07395 q 0.250061,-0.250061 0.591895,-0.250061 0.341835,0 0.591897,0.250062 0.25006,0.25006 0.25006,0.591895 z"
     style="fill:#ffa100;fill-opacity:1;stroke:none;stroke-width:0.10540123;stroke-opacity:1" />
</svg>
