<?xml version="1.0" encoding="UTF-8" standalone="no"?>
<!-- Created with Inkscape (http://www.inkscape.org/) -->

<svg
   xmlns:dc="http://purl.org/dc/elements/1.1/"
   xmlns:cc="http://creativecommons.org/ns#"
   xmlns:rdf="http://www.w3.org/1999/02/22-rdf-syntax-ns#"
   xmlns:svg="http://www.w3.org/2000/svg"
   xmlns="http://www.w3.org/2000/svg"
   version="1.1"
   width="50"
   height="50"
   id="svg3030">
  <defs
     id="defs3032" />
  <metadata
     id="metadata3035">
    <rdf:RDF>
      <cc:Work
         rdf:about="">
        <dc:format>image/svg+xml</dc:format>
        <dc:type
           rdf:resource="http://purl.org/dc/dcmitype/StillImage" />
        <dc:title></dc:title>
      </cc:Work>
    </rdf:RDF>
  </metadata>
  <g
     transform="matrix(0.18441117,0,0,0.18441117,27.184542,15.100179)"
     id="g3054">
    <path
       d="m 102.16315,51.256104 a 104.25666,104.25666 0 1 1 -208.51332,0 104.25666,104.25666 0 1 1 208.51332,0 z"
       transform="translate(-1.6461188,-6.137839)"
       id="path3004"
       style="fill:#ff2a2a;fill-opacity:1;stroke:none" />
    <path
       d="m 102.16315,51.256104 a 104.25666,104.25666 0 1 1 -208.51332,0 104.25666,104.25666 0 1 1 208.51332,0 z"
       transform="matrix(0.79919679,0,0,0.79919679,-2.0665018,4.1545511)"
       id="path3006"
       style="fill:#ffaaaa;fill-opacity:1;stroke:none" />
    <path
       d="m 102.16315,51.256104 a 104.25666,104.25666 0 1 1 -208.51332,0 104.25666,104.25666 0 1 1 208.51332,0 z"
       transform="matrix(0.58507134,0,0,0.58507134,-2.514775,15.129787)"
       id="path3008"
       style="fill:#ff2a2a;fill-opacity:1;stroke:none" />
    <path
       d="m 102.16315,51.256104 a 104.25666,104.25666 0 1 1 -208.51332,0 104.25666,104.25666 0 1 1 208.51332,0 z"
       transform="matrix(0.35882558,0,0,0.35882558,-2.9884221,26.726263)"
       id="path3010"
       style="fill:#ffaaaa;fill-opacity:1;stroke:none" />
  </g>
  <path
     d="M 32.293945,2.9835096 22.433252,20.335314 33.486315,3.6371187 32.293945,2.9835096 z M 17.779707,20.778053 c -1.181007,1.123677 0.341278,4.636398 3.395781,7.846746 3.054506,3.210348 6.487188,4.905412 7.668199,3.781734 1.181008,-1.123677 -0.336801,-4.64065 -3.391311,-7.850998 -3.054506,-3.210349 -6.491658,-4.90116 -7.672669,-3.777482 z m -1.263136,1.840422 -14.3126937,20.21681 c -0.012905,0.0095 -0.028418,0.01849 -0.039951,0.02964 -0.3945313,0.375386 0.1493642,1.579902 1.2113708,2.696099 1.0620101,1.116195 2.2379954,1.719309 2.6325321,1.343928 0.013041,-0.0125 0.024927,-0.02857 0.035985,-0.04274 L 27.189226,33.665631 C 25.341105,33.013223 22.963589,31.354303 20.750929,29.028747 18.634631,26.804473 17.133033,24.461971 16.516571,22.618475 z M 34.631387,10.577037 25.895595,22.524545 35.619916,11.356477 34.631387,10.577037 z M 27.630582,24.51809 c 0,0 12.354196,-8.186779 12.547593,-8.370789 0.193388,-0.184004 -0.69431,-0.855021 -0.69431,-0.855021 l -11.853283,9.22581 z m -16.599286,20.050848 1.407446,1.479258 c 0.370315,0.389217 1.05573,0.505873 1.53375,0.260678 l 5.3213,-2.729932 c 0.478023,-0.245189 0.56466,-0.757858 0.194337,-1.147073 l -1.994237,-2.095986 -0.980287,0.643193 1.645566,1.729525 c 0.131033,0.137725 0.102357,0.317368 -0.06678,0.404123 l -4.499168,2.305332 c -0.169102,0.08684 -0.40772,0.04578 -0.538758,-0.09194 l -1.220348,-1.28262 -0.802822,0.525446 z M 29.912487,28.205103 47.964684,19.382208 47.281863,18.064974 29.912457,28.205081 z"
     id="path3023"
     style="fill:#000000;fill-opacity:1;stroke:none" />
</svg>
