<?xml version="1.0" encoding="UTF-8" standalone="no"?>
<!-- Created with Inkscape (http://www.inkscape.org/) -->

<svg
   xmlns:dc="http://purl.org/dc/elements/1.1/"
   xmlns:cc="http://creativecommons.org/ns#"
   xmlns:rdf="http://www.w3.org/1999/02/22-rdf-syntax-ns#"
   xmlns:svg="http://www.w3.org/2000/svg"
   xmlns="http://www.w3.org/2000/svg"
   version="1.1"
   width="50"
   height="50"
   id="svg3030">
  <defs
     id="defs3032" />
  <metadata
     id="metadata3035">
    <rdf:RDF>
      <cc:Work
         rdf:about="">
        <dc:format>image/svg+xml</dc:format>
        <dc:type
           rdf:resource="http://purl.org/dc/dcmitype/StillImage" />
        <dc:title></dc:title>
      </cc:Work>
    </rdf:RDF>
  </metadata>
  <path
     d="m 24.539539,5.5059377 c -4.241294,0.1450349 -10.388355,1.8121082 -10.41041,7.0470473 -0.04596,10.908862 5.885886,11.967226 5.885886,15.575575 0,3.608347 -15.0150154,10.250251 -15.0150154,10.250251 l 0,6.126127 40.0000004,0 0,-6.126127 c 0,0 -15.015014,-6.641904 -15.015014,-10.250251 0,-3.608349 6.278803,-4.673693 5.885885,-15.575575 C 35.669112,6.9550494 29.271511,5.3441242 24.539539,5.5059377 z"
     id="path3934"
     style="fill:#4d4d4d;stroke:none" />
  <g
     transform="matrix(0.49576271,0,0,0.49576271,6.4967219,11.456055)"
     id="g3060">
    <path
       d="m 61.9165,28.742719 c -7.136135,2.677074 -14.931538,4.398226 -22.714043,4.218323 0.25904,10.037851 -0.799769,21.390199 4.650971,30.177228 5.035695,5.61689 12.089272,8.976957 18.712045,12.33048 7.477762,-4.294678 17.466591,-7.729796 20.821205,-16.494721 2.602667,-8.367543 2.607588,-17.294081 2.406607,-26.012987 C 77.59693,33.453147 69.497612,30.589023 61.9165,28.742719 z"
       id="path3065"
       style="fill:#ffffff;fill-opacity:1;stroke:none" />
    <path
       d="m 40.943353,34.693554 c 10.794103,0 21.588204,-4.317641 21.588204,-4.317641 0,0 10.794102,4.317641 21.588204,4.317641 0,0 0.745523,20.021309 -3.885876,26.862044 -3.562981,5.262641 -17.702328,11.996723 -17.702328,11.996723 0,0 -14.139346,-6.734082 -17.702327,-11.996723 -4.631403,-6.840735 -3.885877,-26.862044 -3.885877,-26.862044 z"
       id="rect3780"
       style="fill:#4d4d4d;fill-opacity:1;stroke:none" />
    <path
       d="M 61.681522,33.430782 C 55.837333,35.465 49.721754,36.808519 43.533938,37.22221 c 0.225456,7.808306 -0.254577,16.217555 3.75095,23.180312 4.071016,4.681402 9.907541,7.448578 15.35461,10.173485 4.55473,-2.549437 9.407716,-4.808772 13.357702,-8.244017 4.178123,-3.519525 4.505066,-9.416732 5.153242,-14.448791 0.352476,-3.541839 0.34982,-7.105425 0.392227,-10.660989 C 74.9845,36.867512 68.61885,35.167181 62.383138,33.187915 l -0.408011,0.141233 -0.293605,0.101634 z"
       id="path3802"
       style="fill:#ffffff;fill-opacity:1;stroke:none" />
    <path
       d="m 62.403229,33.204406 0.135203,20.226314 0.108162,17.143695 c 4.55473,-2.549438 9.408035,-4.812116 13.358021,-8.247361 3.235287,-2.725309 4.150882,-6.85337 4.705051,-10.924373 0.161498,-1.186382 0.313422,-2.379733 0.459689,-3.515269 0.352477,-3.541838 0.336159,-7.098403 0.378568,-10.653967 -6.55817,-0.354698 -12.908982,-2.049772 -19.144694,-4.029039 z"
       id="path3072"
       style="fill:#b3b3b3;fill-opacity:1;stroke:none" />
  </g>
</svg>
