<?xml version="1.0" encoding="UTF-8" standalone="no"?>
<!-- Created with Inkscape (http://www.inkscape.org/) -->

<svg
   xmlns:dc="http://purl.org/dc/elements/1.1/"
   xmlns:cc="http://creativecommons.org/ns#"
   xmlns:rdf="http://www.w3.org/1999/02/22-rdf-syntax-ns#"
   xmlns:svg="http://www.w3.org/2000/svg"
   xmlns="http://www.w3.org/2000/svg"
   xmlns:xlink="http://www.w3.org/1999/xlink"
   version="1.1"
   width="50"
   height="50"
   id="svg3018">
  <defs
     id="defs3020">
    <clipPath
       id="clipPath3853">
      <path
         d="m 30.743876,22.29273 c 13.316177,16.003371 31.070497,24.324116 31.070497,24.324116 0,0 8.878034,23.685997 22.194209,39.689365 0,0 -19.66036,36.730359 -32.405565,42.035949 -9.804999,4.08164 -34.170085,-4.89904 -34.170085,-4.89904 0,0 -10.5210089,-32.945403 -9.5069715,-47.592012 C 9.2440771,56.812453 30.743876,22.29273 30.743876,22.29273 z"
         id="path3855"
         style="fill:#000000;fill-opacity:1;stroke:none" />
    </clipPath>
    <radialGradient
       cx="71.205986"
       cy="985.20435"
       r="44.015625"
       fx="71.205986"
       fy="985.20435"
       id="radialGradient3387"
       xlink:href="#linearGradient3389-9"
       gradientUnits="userSpaceOnUse"
       gradientTransform="matrix(0.69568196,-1.4422528,1.7212716,0.83027149,-1681.3733,319.45306)" />
    <linearGradient
       id="linearGradient3389-9">
      <stop
         id="stop3391-8"
         style="stop-color:#800000;stop-opacity:1"
         offset="0" />
      <stop
         id="stop3393-2"
         style="stop-color:#000080;stop-opacity:1"
         offset="1" />
    </linearGradient>
    <clipPath
       id="clipPath4507">
      <path
         d="m 59.425217,81.874853 c -1.20529,-1.448516 -2.999703,-1.21306 -4.00398,0.525388 -0.822969,1.424597 -0.861296,3.435345 -0.185352,4.905308 -1.804662,0.312107 -5.189631,0.680063 -6.776851,-0.609334 -0.993241,-0.806842 -2.437901,-3.659957 -3.433295,-5.800572 0.557645,-0.206437 1.082444,-0.649143 1.479134,-1.335831 1.004281,-1.738455 0.841037,-4.326611 -0.364258,-5.775134 -1.20529,-1.448516 -2.999699,-1.213067 -4.00398,0.525388 -1.004268,1.738432 -0.841031,4.326617 0.364258,5.775134 0.266047,0.319734 0.557062,0.542306 0.865428,0.699926 l -2.099732,9.224023 c 2.318818,3.305822 4.882009,6.678272 7.667652,10.026051 2.789595,3.35254 5.555179,6.38557 8.231458,9.08149 l 5.902318,-4.62791 c 0.162039,0.40051 0.381135,0.77202 0.642404,1.08601 1.205289,1.44852 2.989006,1.20018 3.993273,-0.53825 1.004281,-1.73846 0.851738,-4.31375 -0.353552,-5.762269 -1.205295,-1.448522 -2.999699,-1.213067 -4.00398,0.525388 -0.397245,0.687651 -0.604327,1.509911 -0.644029,2.339461 -1.639377,-1.02585 -3.845703,-2.56049 -4.57515,-3.823971 -1.165702,-2.019063 -1.525615,-6.887615 -1.63844,-9.504156 1.124103,0.692447 2.47831,0.262991 3.300933,-1.161006 1.004276,-1.738448 0.841031,-4.326617 -0.364259,-5.775134 z m -18.747338,10.723392 -2.028376,8.943485 c 0,0 3.337589,5.08381 5.190908,7.31112 1.853319,2.22732 5.933118,6.05773 5.933118,6.05773 l 5.732818,-4.49149 c -2.494605,-2.54792 -5.07395,-5.39142 -7.660463,-8.49989 -2.582529,-3.103681 -4.983005,-6.246296 -7.168005,-9.320955 z"
         id="path4509"
         style="fill:#d4aa00;fill-opacity:1;stroke:none" />
    </clipPath>
    <radialGradient
       cx="71.205986"
       cy="985.20435"
       r="44.015625"
       fx="71.205986"
       fy="985.20435"
       id="radialGradient4534"
       xlink:href="#linearGradient3389-9"
       gradientUnits="userSpaceOnUse"
       gradientTransform="matrix(0.69568196,-1.4422528,1.7212716,0.83027149,-1681.3733,319.45306)" />
    <radialGradient
       cx="71.205986"
       cy="985.20435"
       r="44.015625"
       fx="71.205986"
       fy="985.20435"
       id="radialGradient4548"
       xlink:href="#linearGradient3389-9"
       gradientUnits="userSpaceOnUse"
       gradientTransform="matrix(0.69568196,-1.4422528,1.7212716,0.83027149,-1681.3733,319.45306)" />
    <radialGradient
       cx="71.205986"
       cy="985.20435"
       r="44.015625"
       fx="71.205986"
       fy="985.20435"
       id="radialGradient4556"
       xlink:href="#linearGradient3389-9"
       gradientUnits="userSpaceOnUse"
       gradientTransform="matrix(0.34712998,-0.71965239,0.85887663,0.41428719,-534.97153,299.84742)" />
  </defs>
  <metadata
     id="metadata3023">
    <rdf:RDF>
      <cc:Work
         rdf:about="">
        <dc:format>image/svg+xml</dc:format>
        <dc:type
           rdf:resource="http://purl.org/dc/dcmitype/StillImage" />
        <dc:title></dc:title>
      </cc:Work>
    </rdf:RDF>
  </metadata>
  <g
     transform="translate(-324.89759,-532.36219)"
     id="layer1">
    <path
       d="m 349.89759,537.29233 c -2.26283,0 -4.1005,1.83767 -4.1005,4.1005 0,1.85431 1.24468,3.43448 2.93467,3.9397 -1.79996,1.90602 -5.31531,5.31404 -7.8995,5.78892 -1.6171,0.29719 -5.04431,-0.5609 -7.51759,-1.28641 0.48578,-0.67347 0.78392,-1.49813 0.78392,-2.39195 0,-2.26284 -1.83766,-4.1005 -4.1005,-4.1005 -2.26283,0 -4.1005,1.83766 -4.1005,4.1005 0,2.26281 1.83767,4.1005 4.1005,4.1005 0.49948,0 0.96443,-0.0977 1.40703,-0.26132 l 3.5779,9.02515 c 4.68566,0.39878 9.68476,0.62312 14.91457,0.62312 5.23723,0 10.24333,-0.22329 14.93467,-0.62312 l 3.57789,-9.00504 c 0.43593,0.15808 0.91653,0.24121 1.40704,0.24121 2.26283,0 4.0804,-1.83769 4.0804,-4.1005 0,-2.26284 -1.81757,-4.1005 -4.0804,-4.1005 -2.26284,0 -4.1005,1.83766 -4.1005,4.1005 0,0.89507 0.29689,1.71798 0.78392,2.39195 -2.47328,0.72551 -5.90049,1.5836 -7.51759,1.28641 -2.58419,-0.47488 -6.09954,-3.8829 -7.8995,-5.78892 1.68888,-0.5059 2.91457,-2.08617 2.91457,-3.9397 0,-2.26283 -1.83767,-4.1005 -4.1005,-4.1005 z m -13.90955,25.54775 3.47739,8.74374 c 0,0 6.95271,0.82411 10.43216,0.82411 3.47945,0 10.45226,-0.82411 10.45226,-0.82411 l 3.47739,-8.74374 c -4.39529,0.34579 -9.07369,0.54274 -13.92965,0.54274 -4.84848,0 -9.52015,-0.198 -13.90955,-0.54274 z"
       id="path4283"
       style="fill:#d4aa00;fill-opacity:1;stroke:none" />
    <g
       id="g4528">
      <path
         d="m 355.37186,564.75591 c 4.87644,0 9.75288,-1.95056 9.75288,-1.95056 0,0 4.87643,1.95056 9.75287,1.95056 0,0 0.3368,9.04502 -1.75552,12.13544 -1.60964,2.37748 -7.99735,5.41975 -7.99735,5.41975 0,0 -6.38772,-3.04227 -7.99736,-5.41975 -2.09232,-3.09042 -1.75552,-12.13544 -1.75552,-12.13544 z"
         id="rect3780"
         style="fill:#000000;fill-opacity:1;stroke:none" />
      <path
         d="m 364.74072,564.18542 c -2.64022,0.91902 -5.40305,1.52598 -8.19851,1.71285 0.10185,3.52757 -0.11501,7.32659 1.69456,10.47215 1.83916,2.11491 4.47592,3.36505 6.93673,4.59608 2.05769,-1.15179 4.25011,-2.17245 6.03459,-3.72442 1.88755,-1.58999 2.03525,-4.25419 2.32808,-6.52748 0.15923,-1.60012 0.15803,-3.21002 0.17719,-4.81633 -2.96277,-0.16023 -5.83857,-0.9284 -8.65567,-1.82257 l -0.18433,0.0638 -0.13264,0.0459 z"
         id="path3802"
         style="fill:#404040;fill-opacity:1;stroke:none" />
      <path
         d="m 369.96876,566.78425 c -0.30492,0 -0.56842,0.10239 -0.79051,0.30722 -0.22211,0.20483 -0.33316,0.45961 -0.33315,0.76414 l 0,2.37818 c -10e-6,0.16566 -0.0631,0.30507 -0.18941,0.41829 -0.12627,0.11282 -0.27661,0.16985 -0.45098,0.16985 l -6.14109,0 c -0.17412,0 -0.32432,-0.0567 -0.45058,-0.16985 -0.12628,-0.11272 -0.18941,-0.25263 -0.18941,-0.41829 l 0,-2.37818 c 0,-0.30453 -0.11112,-0.55931 -0.33335,-0.76414 -0.22224,-0.20483 -0.48567,-0.30722 -0.79031,-0.30722 -0.30491,0 -0.57061,0.10239 -0.7971,0.30722 -0.22649,0.20483 -0.33973,0.45961 -0.33973,0.76414 l 0,3.42368 c 0,0.47897 0.17857,0.8797 0.53572,1.20194 0.35714,0.32239 0.77961,0.48351 1.26741,0.48351 l 7.23844,0 c 0.17437,0 0.32251,0.0567 0.4444,0.16995 0.12187,0.11277 0.18282,0.25688 0.18283,0.43097 l 0,0.70531 c -10e-6,0.17449 -0.0609,0.31824 -0.18283,0.43151 -0.12189,0.11287 -0.27003,0.1699 -0.4444,0.1699 l -7.17305,0 c -0.2964,0 -0.54907,0.10245 -0.75801,0.30703 -0.20895,0.20463 -0.31342,0.45511 -0.31342,0.75131 0,0.29614 0.10447,0.54867 0.31342,0.7578 0.20894,0.20912 0.46161,0.3135 0.75801,0.3135 l 7.89159,0 c 0.58375,0 1.09122,-0.1938 1.52241,-0.58131 0.43117,-0.3877 0.64676,-0.86882 0.64677,-1.44384 l 0,-7.12126 c -10e-6,-0.30458 -0.11106,-0.55931 -0.33315,-0.76414 -0.22212,-0.20483 -0.48562,-0.30722 -0.79052,-0.30722 z"
         id="path3396"
         style="font-size:25.78113556px;font-style:normal;font-variant:normal;font-weight:normal;font-stretch:normal;text-align:center;line-height:125%;letter-spacing:12.02457905px;word-spacing:0px;text-anchor:middle;fill:#b3b3b3;fill-opacity:1;stroke:none;font-family:Cootbold;-inkscape-font-specification:Cootbold" />
      <path
         d="M 100,50 A 50,50 0 1 1 0,50 50,50 0 1 1 100,50 z"
         transform="matrix(0.21614367,-0.1800961,0.12486311,0.1498554,345.94323,566.95206)"
         clip-path="url(#clipPath3853)"
         id="path3004-4"
         style="opacity:0.3;fill:#ffffff;fill-opacity:1;stroke:none" />
    </g>
    <path
       d="M 100,50 A 50,50 0 1 1 0,50 50,50 0 1 1 100,50 z"
       transform="matrix(1.1081022,-0.9232974,0.64013484,0.76826261,231.63743,529.25809)"
       clip-path="url(#clipPath4507)"
       id="path3004-4-4-8"
       style="opacity:0.3;fill:#ffffff;fill-opacity:1;stroke:none" />
  </g>
</svg>
