<?xml version="1.0" encoding="UTF-8" standalone="no"?>
<!-- Created with Inkscape (http://www.inkscape.org/) -->

<svg
   xmlns:dc="http://purl.org/dc/elements/1.1/"
   xmlns:cc="http://creativecommons.org/ns#"
   xmlns:rdf="http://www.w3.org/1999/02/22-rdf-syntax-ns#"
   xmlns:svg="http://www.w3.org/2000/svg"
   xmlns="http://www.w3.org/2000/svg"
   version="1.1"
   width="50"
   height="50"
   id="svg3018">
  <defs
     id="defs3020">
    <clipPath
       id="clipPath3853">
      <path
         d="m 30.743876,22.29273 c 13.316177,16.003371 31.070497,24.324116 31.070497,24.324116 0,0 8.878034,23.685997 22.194209,39.689365 0,0 -19.66036,36.730359 -32.405565,42.035949 -9.804999,4.08164 -34.170085,-4.89904 -34.170085,-4.89904 0,0 -10.5210089,-32.945403 -9.5069715,-47.592012 C 9.2440771,56.812453 30.743876,22.29273 30.743876,22.29273 z"
         id="path3855"
         style="fill:#000000;fill-opacity:1;stroke:none" />
    </clipPath>
    <clipPath
       id="clipPath3073">
      <g
         transform="matrix(0.09203965,0.11061317,-0.07668964,0.13275322,68.759791,130.79664)"
         id="g3075">
        <path
           d="m -301.6875,-179.65625 c -12.67627,0 -22.875,10.19873 -22.875,22.875 l 0,13.5625 -26.28125,0 0,219.90625 219.5,0 0,-219.90625 -25,0 0,-13.5625 c 0,-12.67627 -10.22998,-22.875 -22.90625,-22.875 l -0.84375,0 c -12.67627,0 -22.875,10.19873 -22.875,22.875 l 0,13.5625 -14.1875,0 0,-13.5625 c 0,-12.67627 -10.19873,-22.875 -22.875,-22.875 l -0.84375,0 c -12.67627,0 -22.90625,10.19873 -22.90625,22.875 l 0,13.5625 -14.1875,0 0,-13.5625 c 0,-12.67627 -10.19873,-22.875 -22.875,-22.875 l -0.84375,0 z m -0.21875,12.65625 0.84375,0 c 6.45336,0 11.65625,5.20289 11.65625,11.65625 l 0,33.5625 c 0,6.45336 -5.20289,11.65625 -11.65625,11.65625 l -0.84375,0 c -6.45336,0 -11.65625,-5.20289 -11.65625,-11.65625 l 0,-33.5625 c 0,-6.45336 5.20289,-11.65625 11.65625,-11.65625 z m 60.8125,0 0.84375,0 c 6.45336,0 11.65625,5.20289 11.65625,11.65625 l 0,33.5625 c 0,6.45336 -5.20289,11.65625 -11.65625,11.65625 l -0.84375,0 c -6.45336,0 -11.65625,-5.20289 -11.65625,-11.65625 l 0,-33.5625 c 0,-6.45336 5.20289,-11.65625 11.65625,-11.65625 z m 60.78125,0 0.875,0 c 6.45336,0 11.65625,5.20289 11.65625,11.65625 l 0,33.5625 c 0,6.45336 -5.20289,11.65625 -11.65625,11.65625 l -0.875,0 c -6.45336,0 -11.625,-5.20289 -11.625,-11.65625 l 0,-33.5625 c 0,-6.45336 5.17164,-11.65625 11.625,-11.65625 z m -152.3125,72.5 182.625,0 0,151.71875 -182.625,0 0,-151.71875 z"
           id="path3077"
           style="fill:#000000;stroke:none" />
        <path
           d="m -241.09375,-84.25 c -36.96916,0 -67.125,30.124584 -67.125,67.09375 0,36.969166 30.15584,67.09375 67.125,67.09375 36.96916,0 67.09375,-30.124584 67.09375,-67.09375 0,-36.969166 -30.12459,-67.09375 -67.09375,-67.09375 z m 0,15.96875 c 11.26121,0 21.63389,3.62742 30.0625,9.75 l -71.4375,71.4375 c -6.11254,-8.4267362 -9.71875,-18.8059709 -9.71875,-30.0625 0,-28.322125 22.77162,-51.125 51.09375,-51.125 z m 41.375,21.0625 c 6.11794,8.426736 9.75,18.805971 9.75,30.0625 0,28.322126 -22.80287,51.125 -51.125,51.125 -11.26121,0 -21.6393,-3.627421 -30.0625,-9.75 l 71.4375,-71.4375 z"
           id="path3079"
           style="font-size:medium;font-style:normal;font-variant:normal;font-weight:normal;font-stretch:normal;text-indent:0;text-align:start;text-decoration:none;line-height:normal;letter-spacing:normal;word-spacing:normal;text-transform:none;direction:ltr;block-progression:tb;writing-mode:lr-tb;text-anchor:start;baseline-shift:baseline;color:#000000;fill:#ff0000;fill-opacity:1;stroke:none;stroke-width:17.60573387;marker:none;visibility:visible;display:inline;overflow:visible;enable-background:accumulate;font-family:Sans;-inkscape-font-specification:Sans" />
      </g>
    </clipPath>
  </defs>
  <metadata
     id="metadata3023">
    <rdf:RDF>
      <cc:Work
         rdf:about="">
        <dc:format>image/svg+xml</dc:format>
        <dc:type
           rdf:resource="http://purl.org/dc/dcmitype/StillImage" />
        <dc:title></dc:title>
      </cc:Work>
    </rdf:RDF>
  </metadata>
  <g
     transform="matrix(0.17279668,0,0,0.17279668,66.6602,33.896329)"
     id="g3062">
    <path
       d="m -301.6875,-179.65625 c -12.67627,0 -22.875,10.19873 -22.875,22.875 l 0,13.5625 -26.28125,0 0,219.90625 219.5,0 0,-219.90625 -25,0 0,-13.5625 c 0,-12.67627 -10.22998,-22.875 -22.90625,-22.875 l -0.84375,0 c -12.67627,0 -22.875,10.19873 -22.875,22.875 l 0,13.5625 -14.1875,0 0,-13.5625 c 0,-12.67627 -10.19873,-22.875 -22.875,-22.875 l -0.84375,0 c -12.67627,0 -22.90625,10.19873 -22.90625,22.875 l 0,13.5625 -14.1875,0 0,-13.5625 c 0,-12.67627 -10.19873,-22.875 -22.875,-22.875 l -0.84375,0 z m -0.21875,12.65625 0.84375,0 c 6.45336,0 11.65625,5.20289 11.65625,11.65625 l 0,33.5625 c 0,6.45336 -5.20289,11.65625 -11.65625,11.65625 l -0.84375,0 c -6.45336,0 -11.65625,-5.20289 -11.65625,-11.65625 l 0,-33.5625 c 0,-6.45336 5.20289,-11.65625 11.65625,-11.65625 z m 60.8125,0 0.84375,0 c 6.45336,0 11.65625,5.20289 11.65625,11.65625 l 0,33.5625 c 0,6.45336 -5.20289,11.65625 -11.65625,11.65625 l -0.84375,0 c -6.45336,0 -11.65625,-5.20289 -11.65625,-11.65625 l 0,-33.5625 c 0,-6.45336 5.20289,-11.65625 11.65625,-11.65625 z m 60.78125,0 0.875,0 c 6.45336,0 11.65625,5.20289 11.65625,11.65625 l 0,33.5625 c 0,6.45336 -5.20289,11.65625 -11.65625,11.65625 l -0.875,0 c -6.45336,0 -11.625,-5.20289 -11.625,-11.65625 l 0,-33.5625 c 0,-6.45336 5.17164,-11.65625 11.625,-11.65625 z m -152.3125,72.5 182.625,0 0,151.71875 -182.625,0 0,-151.71875 z"
       id="rect3014"
       style="fill:#000000;stroke:none" />
    <path
       d="m -241.09375,-84.25 c -36.96916,0 -67.125,30.124584 -67.125,67.09375 0,36.969166 30.15584,67.09375 67.125,67.09375 36.96916,0 67.09375,-30.124584 67.09375,-67.09375 0,-36.969166 -30.12459,-67.09375 -67.09375,-67.09375 z m 0,15.96875 c 11.26121,0 21.63389,3.62742 30.0625,9.75 l -71.4375,71.4375 c -6.11254,-8.4267362 -9.71875,-18.8059709 -9.71875,-30.0625 0,-28.322125 22.77162,-51.125 51.09375,-51.125 z m 41.375,21.0625 c 6.11794,8.426736 9.75,18.805971 9.75,30.0625 0,28.322126 -22.80287,51.125 -51.125,51.125 -11.26121,0 -21.6393,-3.627421 -30.0625,-9.75 l 71.4375,-71.4375 z"
       id="path3048"
       style="font-size:medium;font-style:normal;font-variant:normal;font-weight:normal;font-stretch:normal;text-indent:0;text-align:start;text-decoration:none;line-height:normal;letter-spacing:normal;word-spacing:normal;text-transform:none;direction:ltr;block-progression:tb;writing-mode:lr-tb;text-anchor:start;baseline-shift:baseline;color:#000000;fill:#ff0000;fill-opacity:1;stroke:none;stroke-width:17.60573387;marker:none;visibility:visible;display:inline;overflow:visible;enable-background:accumulate;font-family:Sans;-inkscape-font-specification:Sans" />
  </g>
  <g
     transform="translate(-324.89759,-532.36219)"
     id="g4528">
    <path
       d="m 355.37186,564.75591 c 4.87644,0 9.75288,-1.95056 9.75288,-1.95056 0,0 4.87643,1.95056 9.75287,1.95056 0,0 0.3368,9.04502 -1.75552,12.13544 -1.60964,2.37748 -7.99735,5.41975 -7.99735,5.41975 0,0 -6.38772,-3.04227 -7.99736,-5.41975 -2.09232,-3.09042 -1.75552,-12.13544 -1.75552,-12.13544 z"
       id="rect3780"
       style="fill:#000000;fill-opacity:1;stroke:none" />
    <path
       d="m 364.74072,564.18542 c -2.64022,0.91902 -5.40305,1.52598 -8.19851,1.71285 0.10185,3.52757 -0.11501,7.32659 1.69456,10.47215 1.83916,2.11491 4.47592,3.36505 6.93673,4.59608 2.05769,-1.15179 4.25011,-2.17245 6.03459,-3.72442 1.88755,-1.58999 2.03525,-4.25419 2.32808,-6.52748 0.15923,-1.60012 0.15803,-3.21002 0.17719,-4.81633 -2.96277,-0.16023 -5.83857,-0.9284 -8.65567,-1.82257 l -0.18433,0.0638 -0.13264,0.0459 z"
       id="path3802"
       style="fill:#404040;fill-opacity:1;stroke:none" />
    <path
       d="m 369.96876,566.78425 c -0.30492,0 -0.56842,0.10239 -0.79051,0.30722 -0.22211,0.20483 -0.33316,0.45961 -0.33315,0.76414 l 0,2.37818 c -10e-6,0.16566 -0.0631,0.30507 -0.18941,0.41829 -0.12627,0.11282 -0.27661,0.16985 -0.45098,0.16985 l -6.14109,0 c -0.17412,0 -0.32432,-0.0567 -0.45058,-0.16985 -0.12628,-0.11272 -0.18941,-0.25263 -0.18941,-0.41829 l 0,-2.37818 c 0,-0.30453 -0.11112,-0.55931 -0.33335,-0.76414 -0.22224,-0.20483 -0.48567,-0.30722 -0.79031,-0.30722 -0.30491,0 -0.57061,0.10239 -0.7971,0.30722 -0.22649,0.20483 -0.33973,0.45961 -0.33973,0.76414 l 0,3.42368 c 0,0.47897 0.17857,0.8797 0.53572,1.20194 0.35714,0.32239 0.77961,0.48351 1.26741,0.48351 l 7.23844,0 c 0.17437,0 0.32251,0.0567 0.4444,0.16995 0.12187,0.11277 0.18282,0.25688 0.18283,0.43097 l 0,0.70531 c -10e-6,0.17449 -0.0609,0.31824 -0.18283,0.43151 -0.12189,0.11287 -0.27003,0.1699 -0.4444,0.1699 l -7.17305,0 c -0.2964,0 -0.54907,0.10245 -0.75801,0.30703 -0.20895,0.20463 -0.31342,0.45511 -0.31342,0.75131 0,0.29614 0.10447,0.54867 0.31342,0.7578 0.20894,0.20912 0.46161,0.3135 0.75801,0.3135 l 7.89159,0 c 0.58375,0 1.09122,-0.1938 1.52241,-0.58131 0.43117,-0.3877 0.64676,-0.86882 0.64677,-1.44384 l 0,-7.12126 c -10e-6,-0.30458 -0.11106,-0.55931 -0.33315,-0.76414 -0.22212,-0.20483 -0.48562,-0.30722 -0.79052,-0.30722 z"
       id="path3396"
       style="font-size:25.78113556px;font-style:normal;font-variant:normal;font-weight:normal;font-stretch:normal;text-align:center;line-height:125%;letter-spacing:12.02457905px;word-spacing:0px;text-anchor:middle;fill:#b3b3b3;fill-opacity:1;stroke:none;font-family:Cootbold;-inkscape-font-specification:Cootbold" />
    <path
       d="M 100,50 A 50,50 0 1 1 0,50 50,50 0 1 1 100,50 z"
       transform="matrix(0.21614367,-0.1800961,0.12486311,0.1498554,345.94323,566.95206)"
       clip-path="url(#clipPath3853)"
       id="path3004-4"
       style="opacity:0.3;fill:#ffffff;fill-opacity:1;stroke:none" />
  </g>
  <path
     d="M 100,50 A 50,50 0 1 1 0,50 50,50 0 1 1 100,50 z"
     transform="matrix(1.1081022,-0.9232974,0.64013484,0.76826261,-93.26016,-3.1041)"
     clip-path="url(#clipPath3073)"
     id="path3004-4-4-8"
     style="opacity:0.3;fill:#ffffff;fill-opacity:1;stroke:none" />
</svg>
