<?xml version="1.0" encoding="UTF-8" standalone="no"?>
<!-- Created with Inkscape (http://www.inkscape.org/) -->

<svg
   xmlns:dc="http://purl.org/dc/elements/1.1/"
   xmlns:cc="http://creativecommons.org/ns#"
   xmlns:rdf="http://www.w3.org/1999/02/22-rdf-syntax-ns#"
   xmlns:svg="http://www.w3.org/2000/svg"
   xmlns="http://www.w3.org/2000/svg"
   xmlns:xlink="http://www.w3.org/1999/xlink"
   xmlns:sodipodi="http://sodipodi.sourceforge.net/DTD/sodipodi-0.dtd"
   xmlns:inkscape="http://www.inkscape.org/namespaces/inkscape"
   width="50"
   height="50"
   id="svg3018"
   version="1.1"
   inkscape:version="0.48.2 r9819"
   sodipodi:docname="yaga.svg"
   inkscape:export-filename="C:\Users\zdoll\projects\heyitsv2\applications\yaga\icon.png"
   inkscape:export-xdpi="90"
   inkscape:export-ydpi="90">
  <defs
     id="defs3020">
    <linearGradient
       inkscape:collect="always"
       id="linearGradient3389">
      <stop
         style="stop-color:#800000;stop-opacity:1"
         offset="0"
         id="stop3391" />
      <stop
         style="stop-color:#000080;stop-opacity:1"
         offset="1"
         id="stop3393" />
    </linearGradient>
    <clipPath
       clipPathUnits="userSpaceOnUse"
       id="clipPath3853">
      <path
         style="fill:#000000;fill-opacity:1;stroke:none"
         d="m 30.743876,22.29273 c 13.316177,16.003371 31.070497,24.324116 31.070497,24.324116 0,0 8.878034,23.685997 22.194209,39.689365 0,0 -19.66036,36.730359 -32.405565,42.035949 -9.804999,4.08164 -34.170085,-4.89904 -34.170085,-4.89904 0,0 -10.5210089,-32.945403 -9.5069715,-47.592012 C 9.2440771,56.812453 30.743876,22.29273 30.743876,22.29273 z"
         id="path3855"
         inkscape:connector-curvature="0"
         sodipodi:nodetypes="cccscsc" />
    </clipPath>
    <radialGradient
       inkscape:collect="always"
       xlink:href="#linearGradient3389"
       id="radialGradient3387"
       cx="71.205986"
       cy="985.20435"
       fx="71.205986"
       fy="985.20435"
       r="44.015625"
       gradientTransform="matrix(0.69568196,-1.4422528,1.7212716,0.83027149,-1681.3733,319.45306)"
       gradientUnits="userSpaceOnUse" />
  </defs>
  <sodipodi:namedview
     id="base"
     pagecolor="#ffffff"
     bordercolor="#666666"
     borderopacity="1.0"
     inkscape:pageopacity="0.0"
     inkscape:pageshadow="2"
     inkscape:zoom="4.1458216"
     inkscape:cx="65.050489"
     inkscape:cy="2.9811234"
     inkscape:document-units="px"
     inkscape:current-layer="g3812"
     showgrid="false"
     fit-margin-top="0"
     fit-margin-left="0"
     fit-margin-right="0"
     fit-margin-bottom="0"
     inkscape:showpageshadow="false"
     inkscape:window-width="1920"
     inkscape:window-height="1058"
     inkscape:window-x="-8"
     inkscape:window-y="-8"
     inkscape:window-maximized="1" />
  <metadata
     id="metadata3023">
    <rdf:RDF>
      <cc:Work
         rdf:about="">
        <dc:format>image/svg+xml</dc:format>
        <dc:type
           rdf:resource="http://purl.org/dc/dcmitype/StillImage" />
        <dc:title></dc:title>
      </cc:Work>
    </rdf:RDF>
  </metadata>
  <g
     inkscape:label="Layer 1"
     inkscape:groupmode="layer"
     id="layer1"
     transform="translate(-324.89759,-532.36219)">
    <g
       id="g3812"
       transform="matrix(0.49897798,0,0,0.49897798,324.94869,57.205534)">
      <path
         style="fill:#008000;fill-opacity:1;stroke:none"
         d="M 24.84375 3.3125 L 24.34375 3.46875 L 24.03125 3.59375 C 17.27728 5.9446398 10.18234 7.4906592 3.03125 7.96875 C 3.1871775 13.369053 3.079778 19.015631 3.9375 24.40625 C 10.13016 25.872061 17.242174 26.6875 24.8125 26.6875 C 24.875666 26.6875 24.936897 26.687616 25 26.6875 L 24.84375 3.3125 z "
         transform="matrix(2.0040965,0,0,2.0040965,-0.10240933,952.25977)"
         id="path3077" />
      <path
         style="fill:#808000;fill-opacity:1;stroke:none"
         d="M 24.84375 3.3125 L 25 26.6875 C 32.628647 26.673475 39.785309 25.844024 46 24.34375 C 46.186638 22.972681 46.362213 21.593557 46.53125 20.28125 C 46.938598 16.188044 46.91974 12.077819 46.96875 7.96875 C 39.389652 7.5588346 32.050192 5.5998849 24.84375 3.3125 z "
         transform="matrix(2.0040965,0,0,2.0040965,-0.10240933,952.25977)"
         id="path3066" />
      <path
         style="fill:#000080;fill-opacity:1;stroke:none"
         d="M 46 24.34375 C 39.785309 25.844024 32.628647 26.673475 25 26.6875 L 25.125 46.5 C 30.388777 43.553685 35.997609 40.938769 40.5625 36.96875 C 44.301434 33.819185 45.359562 29.048497 46 24.34375 z "
         transform="matrix(2.0040965,0,0,2.0040965,-0.10240933,952.25977)"
         id="path3072" />
      <path
         style="fill:#800000;fill-opacity:1;stroke:none"
         d="m 3.9375,24.40625 c -0.1072153,-0.673827 -0.1068308,-0.671411 0,0 z m 0,0 c 0.575522,3.617046 1.5786842,7.112594 3.4375,10.34375 4.704762,5.410169 11.454971,8.6009 17.75,11.75 L 25,26.6875 c -0.0631,1.16e-4 -0.124334,0 -0.1875,0 -7.570326,0 -14.68234,-0.815439 -20.875,-2.28125 z"
         transform="matrix(2.0040965,0,0,2.0040965,-0.10240933,952.25977)"
         id="path3082"
         inkscape:connector-curvature="0"
         sodipodi:nodetypes="ccccccsc" />
      <path
         transform="translate(0,952.36218)"
         sodipodi:nodetypes="cccscsc"
         inkscape:connector-curvature="0"
         id="rect3780"
         d="M 0,10 C 25,10 50,0 50,0 c 0,0 25,10 50,10 0,0 1.72669,46.370947 -9,62.214634 C 82.747852,84.403329 50,100 50,100 50,100 17.252148,84.403329 9,72.214634 -1.7266978,56.370947 0,10 0,10 z"
         style="fill:#000000;fill-opacity:1;stroke:none" />
      <path
         inkscape:connector-curvature="0"
         id="path3802"
         d="M 48.03125,959.4375 C 34.495643,964.14891 20.331474,967.26061 6,968.21875 c 0.5221736,18.08466 -0.5896199,37.56115 8.6875,53.68745 9.428796,10.8425 22.946654,17.2515 35.5625,23.5626 10.549116,-5.9047 21.789018,-11.1375 30.9375,-19.0938 9.676867,-8.1515 10.434093,-21.8099 11.935318,-33.46455 0.816364,-8.20318 0.810212,-16.45673 0.908432,-24.6917 -15.189243,-0.82151 -29.932595,-4.75961 -44.375,-9.34375 l -0.944986,0.32711 -0.680014,0.23539 z"
         style="fill:url(#radialGradient3387);fill-opacity:1;stroke:none" />
      <path
         inkscape:connector-curvature="0"
         id="path3396"
         style="font-size:25.78113556px;font-style:normal;font-variant:normal;font-weight:normal;font-stretch:normal;text-align:center;line-height:125%;letter-spacing:12.02457905px;word-spacing:0px;text-anchor:middle;fill:#b3b3b3;fill-opacity:1;stroke:none;font-family:Cootbold;-inkscape-font-specification:Cootbold"
         d="m 37.704111,971.45112 c -0.601645,2e-5 -1.121573,0.20209 -1.559788,0.60622 -0.438255,0.40416 -0.657373,0.90678 -0.657352,1.50786 l 0,4.69234 c -2.1e-5,0.32679 -0.124594,0.6019 -0.37372,0.82533 -0.249166,0.22346 -0.545781,0.33518 -0.889846,0.33517 l -12.117165,0 c -0.343566,10e-6 -0.639918,-0.11171 -0.889059,-0.33517 -0.249152,-0.22343 -0.373725,-0.49854 -0.373719,-0.82533 l 0,-4.69234 c -6e-6,-0.60108 -0.219254,-1.1037 -0.657746,-1.50786 -0.438502,-0.40413 -0.9583,-0.6062 -1.559394,-0.60622 -0.601625,2e-5 -1.125881,0.20209 -1.572769,0.60622 -0.446891,0.40416 -0.670336,0.90678 -0.670335,1.50786 l 0,6.75527 c -1e-6,0.94519 0.352344,1.73577 1.057036,2.37174 0.704688,0.63599 1.538279,0.95398 2.500774,0.95397 l 14.282377,0 c 0.344065,1e-5 0.636353,0.11173 0.876864,0.33517 0.240472,0.22345 0.360718,0.50695 0.360738,0.8505 l 0,1.39181 c -2e-5,0.34409 -0.120266,0.62786 -0.360738,0.8513 -0.240511,0.22345 -0.532799,0.33517 -0.876864,0.33516 l -14.153346,0 c -0.584842,10e-6 -1.083396,0.20195 -1.495664,0.60582 -0.412275,0.40389 -0.61841,0.89798 -0.618408,1.48229 -2e-6,0.58432 0.206133,1.08274 0.618408,1.49527 0.412268,0.41254 0.910822,0.6188 1.495664,0.6188 l 15.57112,0 c 1.151821,0 2.153126,-0.38237 3.003918,-1.14712 0.850745,-0.76474 1.276129,-1.71438 1.276153,-2.84892 l 0,-14.05106 c -2.4e-5,-0.60108 -0.219142,-1.1037 -0.657352,-1.50786 -0.438259,-0.40413 -0.958188,-0.6062 -1.559787,-0.60622 z" />
      <path
         inkscape:connector-curvature="0"
         id="path3398"
         style="font-size:25.78113556px;font-style:normal;font-variant:normal;font-weight:normal;font-stretch:normal;text-align:center;line-height:125%;letter-spacing:12.02457905px;word-spacing:0px;text-anchor:middle;fill:#b3b3b3;fill-opacity:1;stroke:none;font-family:Cootbold;-inkscape-font-specification:Cootbold"
         d="m 83.539679,989.62726 -1.314706,-15.15963 c -0.06874,-0.87645 -0.455439,-1.59832 -1.160103,-2.16561 -0.704716,-0.56724 -1.50395,-0.85088 -2.397706,-0.8509 l -14.77254,0 c -0.893787,2e-5 -1.688694,0.28366 -2.384724,0.8509 -0.696041,0.56729 -1.078414,1.28916 -1.147122,2.16561 l -0.335167,3.99604 c -0.05193,0.65357 -0.404408,0.98034 -1.05743,0.98033 l -0.979538,0 c -0.584315,1e-5 -1.082738,0.20195 -1.495271,0.60582 -0.412534,0.40389 -0.618801,0.89798 -0.618801,1.48229 0,0.58432 0.206267,1.08274 0.618801,1.49527 0.412533,0.41254 0.910956,0.61881 1.495271,0.6188 l 0.464199,0 c 0.274845,1e-5 0.519664,0.0902 0.734457,0.27065 0.214787,0.18044 0.31379,0.40808 0.297009,0.68292 l -0.439022,5.02751 c -0.05141,0.60163 0.124832,1.11723 0.528714,1.54681 0.403876,0.42958 0.906626,0.67007 1.508253,0.72147 0.584308,0.0519 1.11276,-0.10267 1.585358,-0.4638 0.472584,-0.36113 0.734843,-0.83385 0.786778,-1.41817 l 0.464199,-5.28478 c 0.03408,-0.30946 0.171509,-0.56726 0.412271,-0.77341 0.240745,-0.20612 0.524247,-0.30919 0.850507,-0.3092 l 12.195056,0 c 0.326229,1e-5 0.609731,0.10308 0.850507,0.3092 0.240731,0.20615 0.378155,0.46395 0.412272,0.77341 l 0.464198,5.28478 c 0.05138,0.58432 0.317704,1.05704 0.798973,1.41817 0.481222,0.36113 1.014001,0.51573 1.598339,0.4638 0.584812,-0.0514 1.083367,-0.29622 1.495665,-0.73445 0.412244,-0.43824 0.592678,-0.94951 0.541303,-1.53383 z m -6.728524,-10.20922 -11.060522,0 c -0.343569,10e-6 -0.639922,-0.11171 -0.889059,-0.33517 -0.249155,-0.22343 -0.373728,-0.5072 -0.37372,-0.8513 l 0,-0.0771 0.128245,-1.41777 c 0.03461,-0.30945 0.176492,-0.56306 0.425647,-0.76082 0.249137,-0.19773 0.528443,-0.2966 0.837918,-0.29661 l 10.828423,0 c 0.308921,10e-6 0.592292,0.0989 0.850114,0.29661 0.257779,0.19776 0.395334,0.45137 0.412665,0.76082 l 0.103068,1.41777 c 0.01729,0.0173 0.02594,0.043 0.02596,0.0771 -2.2e-5,0.3441 -0.128922,0.62787 -0.386701,0.8513 -0.257822,0.22346 -0.558502,0.33518 -0.902041,0.33517 z" />
      <path
         inkscape:connector-curvature="0"
         id="path3400"
         style="font-size:25.78113556px;font-style:normal;font-variant:normal;font-weight:normal;font-stretch:normal;text-align:center;line-height:125%;letter-spacing:8.01638603px;word-spacing:0px;text-anchor:middle;fill:#b3b3b3;fill-opacity:1;stroke:none;font-family:Cootbold;-inkscape-font-specification:Cootbold"
         d="m 39.297509,1011.6445 -7.553854,0 c -0.584327,0 -1.078423,0.2062 -1.482289,0.6188 -0.403892,0.4125 -0.605832,0.9109 -0.605819,1.4952 -1.3e-5,0.5843 0.201927,1.0828 0.605819,1.4953 0.403866,0.4125 0.897962,0.6188 1.482289,0.6188 l 5.362678,0 c 0.343539,0 0.639892,0.1117 0.889059,0.3352 0.249125,0.2234 0.373698,0.5069 0.373719,0.8505 l 0,1.3918 c -2.1e-5,0.3441 -0.124594,0.6278 -0.373719,0.8513 -0.249167,0.2234 -0.54552,0.3351 -0.889059,0.3351 l -12.324088,0 c -0.532393,0 -1.000526,-0.1804 -1.404398,-0.5413 -0.403885,-0.3608 -0.605825,-0.8077 -0.605819,-1.3406 l 0,-7.9669 c -6e-6,-0.5497 0.197606,-1.0008 0.592837,-1.3533 0.395218,-0.3525 0.867678,-0.5287 1.41738,-0.5287 l 15.082531,0 c 0.58429,0 1.078386,-0.2061 1.482289,-0.6184 0.403855,-0.4123 0.605794,-0.9108 0.605819,-1.4957 -2.5e-5,-0.5843 -0.201964,-1.0827 -0.605819,-1.4953 -0.403903,-0.4125 -0.897999,-0.6187 -1.482289,-0.6188 l -15.933038,0 c -1.512192,10e-5 -2.826896,0.4986 -3.944117,1.4957 -1.117226,0.9971 -1.675838,2.2431 -1.675837,3.738 l 0,9.7198 c -1e-6,1.4781 0.558611,2.7156 1.675837,3.7125 1.117221,0.9968 2.431925,1.4952 3.944117,1.4952 l 13.251699,0 c 1.512166,0 2.82687,-0.4941 3.944117,-1.4823 1.1172,-0.9882 1.675811,-2.23 1.675837,-3.7254 l 0,-3.6868 c -2.6e-5,-0.9452 -0.348043,-1.7314 -1.044054,-2.3588 -0.69606,-0.6273 -1.516669,-0.9409 -2.461828,-0.9409 z" />
      <path
         inkscape:connector-curvature="0"
         id="path3402"
         style="font-size:25.78113556px;font-style:normal;font-variant:normal;font-weight:normal;font-stretch:normal;text-align:center;line-height:125%;letter-spacing:8.01638603px;word-spacing:0px;text-anchor:middle;fill:#b3b3b3;fill-opacity:1;stroke:none;font-family:Cootbold;-inkscape-font-specification:Cootbold"
         d="m 81.611113,1021.8537 -1.314706,-15.1597 c -0.06874,-0.8764 -0.455439,-1.5983 -1.160104,-2.1656 -0.704715,-0.5672 -1.503949,-0.8508 -2.397705,-0.8509 l -14.77254,0 c -0.893787,10e-5 -1.688694,0.2837 -2.384724,0.8509 -0.696041,0.5673 -1.078415,1.2892 -1.147122,2.1656 l -0.335167,3.9961 c -0.05193,0.6536 -0.404408,0.9803 -1.05743,0.9803 l -0.979538,0 c -0.584315,0 -1.082738,0.202 -1.495271,0.6058 -0.412534,0.4039 -0.618801,0.898 -0.618801,1.4823 0,0.5843 0.206267,1.0828 0.618801,1.4953 0.412533,0.4125 0.910956,0.6188 1.495271,0.6188 l 0.464199,0 c 0.274845,0 0.519664,0.09 0.734457,0.2707 0.214787,0.1804 0.31379,0.408 0.297009,0.6829 l -0.439022,5.0275 c -0.05141,0.6016 0.124832,1.1172 0.528714,1.5468 0.403875,0.4296 0.906626,0.6701 1.508253,0.7215 0.584308,0.052 1.11276,-0.1027 1.585358,-0.4638 0.472584,-0.3612 0.734843,-0.8339 0.786777,-1.4182 l 0.464199,-5.2848 c 0.03409,-0.3095 0.17151,-0.5673 0.412272,-0.7734 0.240745,-0.2061 0.524247,-0.3092 0.850507,-0.3092 l 12.195056,0 c 0.326229,0 0.609731,0.1031 0.850507,0.3092 0.240731,0.2061 0.378155,0.4639 0.412271,0.7734 l 0.464199,5.2848 c 0.05138,0.5843 0.317704,1.057 0.798973,1.4182 0.481221,0.3611 1.014001,0.5157 1.598339,0.4638 0.584812,-0.051 1.083367,-0.2963 1.495665,-0.7345 0.412244,-0.4382 0.592678,-0.9495 0.541303,-1.5338 z m -6.728524,-10.2092 -11.060522,0 c -0.34357,0 -0.639922,-0.1118 -0.889059,-0.3352 -0.249155,-0.2234 -0.373728,-0.5072 -0.37372,-0.8513 l 0,-0.077 0.128245,-1.4178 c 0.03461,-0.3094 0.176492,-0.563 0.425647,-0.7608 0.249137,-0.1977 0.528443,-0.2966 0.837918,-0.2966 l 10.828423,0 c 0.308921,0 0.592291,0.099 0.850114,0.2966 0.257779,0.1978 0.395334,0.4514 0.412665,0.7608 l 0.103068,1.4178 c 0.01729,0.017 0.02594,0.043 0.02596,0.077 -2.2e-5,0.3441 -0.128922,0.6279 -0.386701,0.8513 -0.257822,0.2234 -0.558502,0.3352 -0.902041,0.3352 z" />
      <path
         sodipodi:type="arc"
         style="opacity:0.3;fill:#ffffff;fill-opacity:1;stroke:none"
         id="path3004-4"
         sodipodi:cx="50"
         sodipodi:cy="50"
         sodipodi:rx="50"
         sodipodi:ry="50"
         d="M 100,50 C 100,77.614237 77.614237,100 50,100 22.385763,100 0,77.614237 0,50 0,22.385763 22.385763,0 50,0 c 27.614237,0 50,22.385763 50,50 z"
         transform="matrix(1.1081022,-0.92329738,0.64013483,0.76826259,-48.33771,973.62125)"
         clip-path="url(#clipPath3853)" />
    </g>
  </g>
</svg>
